<svg width="41" height="33" viewBox="0 0 41 33" fill="none" xmlns="http://www.w3.org/2000/svg">
<g clip-path="url(#clip0_48_131)">
<path d="M3.99976 13.6886C3.99976 12.9931 4.35053 12.3262 4.97491 11.8344C5.59928 11.3427 6.44612 11.0664 7.32913 11.0664H33.9641C34.8471 11.0664 35.6939 11.3427 36.3183 11.8344C36.9427 12.3262 37.2935 12.9931 37.2935 13.6886V29.4215C37.2935 30.1169 36.9427 30.7838 36.3183 31.2756C35.6939 31.7673 34.8471 32.0436 33.9641 32.0436H7.32913C6.44612 32.0436 5.59928 31.7673 4.97491 31.2756C4.35053 30.7838 3.99976 30.1169 3.99976 29.4215V13.6886Z" fill="black" stroke="black" stroke-width="3" stroke-linecap="round" stroke-linejoin="round"/>
<path d="M4.21606 11.113L16.7029 18.9808C17.8836 19.7248 19.3507 20.1302 20.8629 20.1302C22.3751 20.1302 23.8422 19.7248 25.023 18.9808L37.5098 11.113" fill="black"/>
<path d="M4.21606 11.113L16.7029 18.9808C17.8836 19.7248 19.3507 20.1302 20.8629 20.1302C22.3751 20.1302 23.8422 19.7248 25.023 18.9808L37.5098 11.113" stroke="white" stroke-width="3" stroke-linecap="round" stroke-linejoin="round"/>
</g>
<defs>
<clipPath id="clip0_48_131">
<rect width="39.9524" height="31.4658" fill="white" transform="translate(0.886719 0.62439)"/>
</clipPath>
</defs>
</svg>
