<svg width="32" height="32" viewBox="0 0 32 32" fill="none" xmlns="http://www.w3.org/2000/svg">
<path d="M13.8313 7.36113L8.75681 1.50398C8.17181 0.82902 7.09932 0.83202 6.41982 1.51298L2.24684 5.69323C1.00485 6.93665 0.64935 8.78304 1.36785 10.2635C5.66025 19.1504 12.8279 26.3276 21.7092 30.6322C23.1882 31.3507 25.0332 30.9952 26.2752 29.7518L30.4872 25.5325C31.1697 24.8501 31.1712 23.7716 30.4902 23.1867L24.6102 18.1395C23.9952 17.6115 23.0397 17.6805 22.4232 18.2985L20.3772 20.3473C20.2725 20.4571 20.1346 20.5295 19.9848 20.5533C19.8349 20.5772 19.6814 20.5512 19.5477 20.4793C16.2034 18.5536 13.4293 15.776 11.5078 12.4293C11.4358 12.2955 11.4098 12.1417 11.4336 11.9916C11.4575 11.8415 11.5299 11.7034 11.6398 11.5984L13.6798 9.557C14.2978 8.93603 14.3653 7.97609 13.8313 7.35963V7.36113Z" fill="black" stroke="black" stroke-linecap="round" stroke-linejoin="round"/>
</svg>
