<svg width="40" height="40" viewBox="0 0 40 40" fill="none" xmlns="http://www.w3.org/2000/svg">
<g clip-path="url(#clip0_1_42)">
<path d="M3.11298 16.6075C3.11298 15.7234 3.46375 14.8756 4.08813 14.2505C4.7125 13.6254 5.55934 13.2742 6.44235 13.2742H33.0773C33.9603 13.2742 34.8071 13.6254 35.4315 14.2505C36.0559 14.8756 36.4067 15.7234 36.4067 16.6075V36.6075C36.4067 37.4916 36.0559 38.3394 35.4315 38.9645C34.8071 39.5896 33.9603 39.9408 33.0773 39.9408H6.44235C5.55934 39.9408 4.7125 39.5896 4.08813 38.9645C3.46375 38.3394 3.11298 37.4916 3.11298 36.6075V16.6075Z" fill="#0B0000" stroke="white" stroke-width="3" stroke-linecap="round" stroke-linejoin="round"/>
<path d="M3.32938 13.3333L15.8162 23.3349C16.9969 24.2808 18.4641 24.7961 19.9762 24.7961C21.4884 24.7961 22.9555 24.2808 24.1363 23.3349L36.6231 13.3333" fill="#0B0000"/>
<path d="M3.32938 13.3333L15.8162 23.3349C16.9969 24.2808 18.4641 24.7961 19.9762 24.7961C21.4884 24.7961 22.9555 24.2808 24.1363 23.3349L36.6231 13.3333" stroke="white" stroke-width="3" stroke-linecap="round" stroke-linejoin="round"/>
</g>
<defs>
<clipPath id="clip0_1_42">
<rect width="39.9524" height="40" fill="white"/>
</clipPath>
</defs>
</svg>
