<svg width="35" height="35" viewBox="0 0 35 35" fill="none" xmlns="http://www.w3.org/2000/svg">
<path d="M17.5 2.91675C15.1794 2.91675 12.9538 3.83862 11.3128 5.47956C9.67187 7.12051 8.75 9.3461 8.75 11.6667C8.75 13.7361 9.19042 15.0909 10.3906 16.5886L17.5 24.7917L24.6094 16.5886C25.8096 15.0909 26.25 13.7361 26.25 11.6667C26.25 9.3461 25.3281 7.12051 23.6872 5.47956C22.0462 3.83862 19.8206 2.91675 17.5 2.91675Z" fill="black" stroke="black" stroke-width="3" stroke-linecap="round" stroke-linejoin="round"/>
<path d="M7.29169 22.0835C4.59231 23.1437 2.91669 24.6181 2.91669 26.25C2.91669 29.4729 9.44565 32.0833 17.5 32.0833C25.5544 32.0833 32.0834 29.4729 32.0834 26.25C32.0834 24.6181 30.4077 23.1437 27.7084 22.0835" stroke="black" stroke-width="3" stroke-linecap="round" stroke-linejoin="round"/>
<path d="M17.4419 12.622C18.2151 12.622 18.8419 12.0817 18.8419 11.4151C18.8419 10.7486 18.2151 10.2083 17.4419 10.2083C16.6687 10.2083 16.0419 10.7486 16.0419 11.4151C16.0419 12.0817 16.6687 12.622 17.4419 12.622Z" fill="white" stroke="white" stroke-width="5" stroke-linecap="round" stroke-linejoin="round"/>
</svg>
