<svg width="48" height="18" viewBox="0 0 48 18" fill="none" xmlns="http://www.w3.org/2000/svg">
<path d="M6.88838 17.288C5.72038 17.288 4.56038 17.136 3.40838 16.832C2.25638 16.512 1.28038 16.064 0.480375 15.488L1.99238 12.512C2.63238 12.976 3.37638 13.344 4.22438 13.616C5.07238 13.888 5.92838 14.024 6.79238 14.024C7.76838 14.024 8.53638 13.832 9.09638 13.448C9.65638 13.064 9.93638 12.536 9.93638 11.864C9.93638 11.224 9.68838 10.72 9.19238 10.352C8.69638 9.984 7.89638 9.8 6.79238 9.8H5.01638V7.232L9.69638 1.928L10.1284 3.32H1.32038V0.199999H13.0804V2.72L8.42438 8.024L6.45638 6.896H7.58438C9.64838 6.896 11.2084 7.36 12.2644 8.288C13.3204 9.216 13.8484 10.408 13.8484 11.864C13.8484 12.808 13.6004 13.696 13.1044 14.528C12.6084 15.344 11.8484 16.008 10.8244 16.52C9.80038 17.032 8.48838 17.288 6.88838 17.288ZM17.1795 17V0.199999H24.4515C25.9555 0.199999 27.2515 0.447999 28.3395 0.943999C29.4275 1.424 30.2675 2.12 30.8595 3.032C31.4515 3.944 31.7475 5.032 31.7475 6.296C31.7475 7.544 31.4515 8.624 30.8595 9.536C30.2675 10.448 29.4275 11.152 28.3395 11.648C27.2515 12.128 25.9555 12.368 24.4515 12.368H19.3395L21.0675 10.616V17H17.1795ZM21.0675 11.048L19.3395 9.2H24.2355C25.4355 9.2 26.3315 8.944 26.9235 8.432C27.5155 7.92 27.8115 7.208 27.8115 6.296C27.8115 5.368 27.5155 4.648 26.9235 4.136C26.3315 3.624 25.4355 3.368 24.2355 3.368H19.3395L21.0675 1.52V11.048ZM35.0032 17V0.199999H38.8912V13.832H47.3152V17H35.0032Z" fill="rgba(255, 255, 255, 1)"/>
</svg>
