<svg width="58" height="58" viewBox="0 0 58 58" fill="none" xmlns="http://www.w3.org/2000/svg">
<path d="M37.3333 10.3809H43.2857C44.5486 10.3809 45.7599 10.8826 46.6529 11.7756C47.5459 12.6687 48.0476 13.8799 48.0476 15.1428V46.0952C48.0476 47.3581 47.5459 48.5693 46.6529 49.4624C45.7599 50.3554 44.5486 50.8571 43.2857 50.8571H14.7143C13.4513 50.8571 12.2401 50.3554 11.3471 49.4624C10.4541 48.5693 9.95238 47.3581 9.95238 46.0952V15.1428C9.95238 13.8799 10.4541 12.6687 11.3471 11.7756C12.2401 10.8826 13.4513 10.3809 14.7143 10.3809H20.6667" stroke="rgba(255, 255, 255, 1)" stroke-width="3" stroke-linecap="round" stroke-linejoin="round"/>
<path d="M20.9548 9.22616C21.2123 8.19597 21.8067 7.28141 22.6436 6.62784C23.4806 5.97427 24.5119 5.61918 25.5738 5.61902H32.4238C33.4857 5.61918 34.5171 5.97427 35.354 6.62784C36.1909 7.28141 36.7854 8.19597 37.0429 9.22616L38.5238 15.1428H19.4762L20.9548 9.22616Z" stroke="rgba(255, 255, 255, 1)" stroke-width="3" stroke-linecap="round" stroke-linejoin="round"/>
<path d="M21.8571 29.4285H36.1429" stroke="rgba(255, 255, 255, 1)" stroke-width="3" stroke-linecap="round" stroke-linejoin="round"/>
<path d="M21.8571 38.9523H36.1429" stroke="rgba(255, 255, 255, 1)" stroke-width="3" stroke-linecap="round" stroke-linejoin="round"/>
</svg>
