<svg width="50" height="50" viewBox="0 0 50 50" fill="none" xmlns="http://www.w3.org/2000/svg">
<path d="M28.125 12.5V20.8333H33.3334M30.5938 4.16663H20.8334C19.7283 4.16663 18.6685 4.60561 17.8871 5.38701C17.1057 6.16842 16.6667 7.22822 16.6667 8.33329V33.3333C16.6667 34.4384 17.1057 35.4982 17.8871 36.2796C18.6685 37.061 19.7283 37.5 20.8334 37.5H37.5C38.6051 37.5 39.6649 37.061 40.4463 36.2796C41.2277 35.4982 41.6667 34.4384 41.6667 33.3333V15.0875C41.6666 14.5324 41.5556 13.9829 41.3403 13.4713C41.1249 12.9597 40.8095 12.4963 40.4125 12.1083L33.5063 5.35413C32.7279 4.593 31.6825 4.16676 30.5938 4.16663V4.16663Z" stroke="rgba(255, 255, 255, 1)" stroke-width="3" stroke-linecap="round" stroke-linejoin="round"/>
<path d="M33.3333 37.5V41.6667C33.3333 42.7718 32.8943 43.8316 32.1129 44.613C31.3315 45.3944 30.2717 45.8334 29.1666 45.8334H12.5C11.3949 45.8334 10.3351 45.3944 9.5537 44.613C8.7723 43.8316 8.33331 42.7718 8.33331 41.6667V18.75C8.33331 17.645 8.7723 16.5852 9.5537 15.8038C10.3351 15.0224 11.3949 14.5834 12.5 14.5834H16.6666" stroke="rgba(255, 255, 255, 1)" stroke-width="3" stroke-linecap="round" stroke-linejoin="round"/>
</svg>
