<svg width="50" height="50" viewBox="0 0 50 50" fill="none" xmlns="http://www.w3.org/2000/svg">
<path d="M12.9854 12.1541L13.9125 7.51663C14.1014 6.57172 14.6119 5.72148 15.3572 5.11067C16.1025 4.49986 17.0364 4.16624 18 4.16663H32C32.9636 4.16624 33.8976 4.49986 34.6428 5.11067C35.3881 5.72148 35.8986 6.57172 36.0875 7.51663L37.0146 12.1541C37.1601 12.8808 37.5089 13.5512 38.0204 14.0874C38.532 14.6237 39.1852 15.0037 39.9042 15.1833C41.5979 15.607 43.1014 16.5847 44.1757 17.961C45.2501 19.3373 45.8335 21.0332 45.8333 22.7791V37.5C45.8333 39.7101 44.9554 41.8297 43.3926 43.3925C41.8298 44.9553 39.7101 45.8333 37.5 45.8333H12.5C10.2899 45.8333 8.17025 44.9553 6.60745 43.3925C5.04465 41.8297 4.16667 39.7101 4.16667 37.5V22.7791C4.16651 21.0332 4.74996 19.3373 5.82426 17.961C6.89857 16.5847 8.40209 15.607 10.0958 15.1833C10.8148 15.0037 11.4681 14.6237 11.9796 14.0874C12.4911 13.5512 12.8399 12.8808 12.9854 12.1541V12.1541Z" stroke="rgba(255, 255, 255, 1)" stroke-width="3" stroke-linecap="round" stroke-linejoin="round"/>
<path d="M25 37.5C29.6024 37.5 33.3333 33.7691 33.3333 29.1667C33.3333 24.5643 29.6024 20.8334 25 20.8334C20.3976 20.8334 16.6667 24.5643 16.6667 29.1667C16.6667 33.7691 20.3976 37.5 25 37.5Z" stroke="rgba(255, 255, 255, 1)" stroke-width="3" stroke-linecap="round" stroke-linejoin="round"/>
<path d="M22.9167 12.5H27.0833" stroke="rgba(255, 255, 255, 1)" stroke-width="3" stroke-linecap="round" stroke-linejoin="round"/>
</svg>
