<svg width="50" height="50" viewBox="0 0 50 50" fill="none" xmlns="http://www.w3.org/2000/svg">
<path d="M20.8333 35.4167H33.3333V12.5C33.3333 11.395 32.8943 10.3352 32.1129 9.55376C31.3315 8.77236 30.2717 8.33337 29.1667 8.33337H8.33333C7.22827 8.33337 6.16846 8.77236 5.38706 9.55376C4.60565 10.3352 4.16667 11.395 4.16667 12.5V33.3334C4.16667 33.8859 4.38616 34.4158 4.77686 34.8065C5.16756 35.1972 5.69747 35.4167 6.25 35.4167H8.33333" stroke="rgba(251, 250, 248, 1)" stroke-width="3" stroke-linecap="round" stroke-linejoin="round"/>
<path d="M45.8333 33.3333V25C45.8333 22.7898 44.9554 20.6702 43.3926 19.1074C41.8298 17.5446 39.7101 16.6666 37.5 16.6666H33.3333V35.4166H43.75C44.3025 35.4166 44.8324 35.1971 45.2231 34.8064C45.6138 34.4157 45.8333 33.8858 45.8333 33.3333Z" stroke="rgba(251, 250, 248, 1)" stroke-width="3" stroke-linecap="round" stroke-linejoin="round"/>
<path d="M31.25 35.4166C31.25 37.0742 31.9085 38.6639 33.0806 39.836C34.2527 41.0081 35.8424 41.6666 37.5 41.6666C39.1576 41.6666 40.7473 41.0081 41.9194 39.836C43.0915 38.6639 43.75 37.0742 43.75 35.4166H31.25Z" stroke="rgba(251, 250, 248, 1)" stroke-width="3" stroke-linecap="round" stroke-linejoin="round"/>
<path d="M45.8333 29.1666H41.6667" stroke="rgba(251, 250, 248, 1)" stroke-width="3" stroke-linecap="round" stroke-linejoin="round"/>
<path d="M14.25 41.5C17.7018 41.5 20.5 38.7018 20.5 35.25C20.5 31.7982 17.7018 29 14.25 29C10.7982 29 8 31.7982 8 35.25C8 38.7018 10.7982 41.5 14.25 41.5Z" stroke="rgba(251, 250, 248, 1)" stroke-width="3" stroke-linecap="round" stroke-linejoin="round"/>
</svg>
