<svg width="50" height="50" viewBox="0 0 50 50" fill="none" xmlns="http://www.w3.org/2000/svg">
<path d="M34.8313 41.15L33.4979 30.475C33.309 28.963 32.5741 27.572 31.4316 26.5638C30.2891 25.5555 28.8176 24.9994 27.2938 25H22.7021C21.179 25.0004 19.7085 25.557 18.5669 26.5652C17.4252 27.5733 16.691 28.9637 16.5021 30.475L15.1667 41.15C15.0934 41.7365 15.1457 42.3319 15.3202 42.8966C15.4946 43.4613 15.7872 43.9824 16.1786 44.4254C16.5699 44.8683 17.051 45.2229 17.5899 45.4657C18.1288 45.7084 18.7131 45.8338 19.3042 45.8333H30.6958C31.2867 45.8335 31.8709 45.7079 32.4095 45.465C32.9481 45.2222 33.429 44.8675 33.8201 44.4246C34.2112 43.9817 34.5036 43.4606 34.6779 42.8961C34.8523 42.3315 34.9045 41.7363 34.8313 41.15V41.15Z" stroke="rgba(251, 250, 248, 1)" stroke-width="3" stroke-linecap="round" stroke-linejoin="round"/>
<path d="M25 16.6666C28.4518 16.6666 31.25 13.8684 31.25 10.4166C31.25 6.96485 28.4518 4.16663 25 4.16663C21.5482 4.16663 18.75 6.96485 18.75 10.4166C18.75 13.8684 21.5482 16.6666 25 16.6666Z" stroke="rgba(251, 250, 248, 1)" stroke-width="3" stroke-linecap="round" stroke-linejoin="round"/>
<path d="M8.33332 22.9167C10.6345 22.9167 12.5 21.0512 12.5 18.75C12.5 16.4489 10.6345 14.5834 8.33332 14.5834C6.03214 14.5834 4.16666 16.4489 4.16666 18.75C4.16666 21.0512 6.03214 22.9167 8.33332 22.9167Z" stroke="rgba(251, 250, 248, 1)" stroke-width="3" stroke-linecap="round" stroke-linejoin="round"/>
<path d="M41.6667 22.9167C43.9679 22.9167 45.8333 21.0512 45.8333 18.75C45.8333 16.4489 43.9679 14.5834 41.6667 14.5834C39.3655 14.5834 37.5 16.4489 37.5 18.75C37.5 21.0512 39.3655 22.9167 41.6667 22.9167Z" stroke="rgba(251, 250, 248, 1)" stroke-width="3" stroke-linecap="round" stroke-linejoin="round"/>
<path d="M8.33333 29.1666H7.69583C6.7095 29.1665 5.75511 29.5163 5.00245 30.1537C4.24978 30.7912 3.74766 31.675 3.58541 32.6479L2.89166 36.8145C2.7921 37.4115 2.82379 38.023 2.98451 38.6065C3.14524 39.19 3.43114 39.7314 3.82234 40.1932C4.21354 40.655 4.70065 41.026 5.24977 41.2805C5.7989 41.5349 6.39686 41.6667 7.00208 41.6666H14.5833" stroke="rgba(251, 250, 248, 1)" stroke-width="3" stroke-linecap="round" stroke-linejoin="round"/>
<path d="M41.6667 29.1666H42.3042C43.2905 29.1665 44.2449 29.5163 44.9975 30.1537C45.7502 30.7912 46.2523 31.675 46.4146 32.6479L47.1083 36.8145C47.2079 37.4115 47.1762 38.023 47.0155 38.6065C46.8547 39.19 46.5688 39.7314 46.1776 40.1932C45.7864 40.655 45.2993 41.026 44.7502 41.2805C44.2011 41.5349 43.6031 41.6667 42.9979 41.6666H35.4167" stroke="rgba(251, 250, 248, 1)" stroke-width="3" stroke-linecap="round" stroke-linejoin="round"/>
</svg>
