<svg width="50" height="50" viewBox="0 0 50 50" fill="none" xmlns="http://www.w3.org/2000/svg">
<path fill-rule="evenodd" clip-rule="evenodd" d="M23.5337 8.71373C24.441 8.95377 25.4069 8.96676 26.3222 8.75124L41.3865 32.0523C40.689 32.6402 40.199 33.3909 39.9744 34.2152H10.022C9.78099 33.3498 9.25034 32.5669 8.49796 31.9668L23.5313 8.71373H23.5337ZM21.3405 7.53639C21.3833 7.57806 21.431 7.61765 21.4762 7.65725L6.40953 30.9645C6.33848 30.9479 6.26703 30.9326 6.19521 30.9187V19.0681C6.88023 18.934 7.5258 18.6765 8.09078 18.312C8.65576 17.9475 9.12776 17.484 9.47668 16.951C9.82418 16.421 10.0436 15.8343 10.1215 15.2271C10.1993 14.6199 10.1338 14.0052 9.92913 13.421L21.3405 7.53847V7.53639ZM29.8418 5.79642C30.0832 5.13335 30.1433 4.42997 30.0174 3.74285C29.8915 3.05573 29.5831 2.40406 29.1169 1.84026C28.6508 1.27645 28.0399 0.816248 27.3335 0.496664C26.6271 0.17708 25.8448 0.00703764 25.0496 0.000213832C24.2544 -0.00660998 23.4684 0.149975 22.755 0.457375C22.0415 0.764775 21.4204 1.21441 20.9417 1.77011C20.4631 2.3258 20.1401 2.97206 19.9988 3.65688C19.8575 4.3417 19.9019 5.04598 20.1284 5.71306L8.70989 11.6019C8.16193 11.1101 7.49108 10.7363 6.75009 10.5098C6.00909 10.2833 5.21815 10.2103 4.43946 10.2965C3.66077 10.3828 2.91555 10.6259 2.2624 11.0068C1.60925 11.3877 1.06598 11.896 0.675292 12.4917C0.285097 13.0881 0.0572591 13.7552 0.00946974 14.4412C-0.0383197 15.1272 0.095226 15.8136 0.399737 16.4471C0.704247 17.0806 1.17153 17.6442 1.76529 18.094C2.35906 18.5439 3.06332 18.868 3.82341 19.041V30.9499C3.06498 31.1247 2.36267 31.4498 1.77081 31.9001C1.17896 32.3505 0.713427 32.9139 0.410241 33.5468C0.107054 34.1798 -0.0256601 34.8653 0.0223654 35.5503C0.0703909 36.2353 0.297869 36.9015 0.687199 37.4972C1.07735 38.0915 1.61946 38.5986 2.27106 38.9789C2.92266 39.3591 3.66604 39.6022 4.44294 39.689C5.21984 39.7758 6.00916 39.704 6.74904 39.4792C7.48892 39.2544 8.15925 38.8827 8.70751 38.3933L20.126 44.2821C19.9895 44.6916 19.9205 45.1161 19.9212 45.5428C19.9236 48.0079 22.1906 50 25.0006 50C25.8136 49.9985 26.6143 49.8266 27.3358 49.4987C28.0573 49.1708 28.6786 48.6965 29.1477 48.1155C29.6168 47.5344 29.9201 46.8635 30.0321 46.1589C30.1442 45.4543 30.0618 44.7364 29.7918 44.0653L41.1055 38.2307C41.6388 38.7581 42.3079 39.1668 43.0576 39.4229C43.8073 39.6791 44.6159 39.7753 45.4165 39.7036C46.2171 39.6319 46.9867 39.3944 47.6615 39.0107C48.3364 38.627 48.8971 38.1082 49.2972 37.4972C49.6984 36.8917 49.9309 36.212 49.9759 35.5131C50.0208 34.8143 49.877 34.116 49.556 33.4749C49.235 32.8338 48.7459 32.2679 48.1284 31.823C47.5108 31.3782 46.7822 31.0669 46.0015 30.9145V19.0785C46.7828 18.9259 47.5123 18.6148 48.1311 18.1703C48.7499 17.7258 49.2408 17.1604 49.5642 16.5196C49.8876 15.8787 50.0346 15.1804 49.9932 14.4808C49.9518 13.7812 49.7232 13.0998 49.3258 12.4917C48.9304 11.8908 48.3797 11.3792 47.718 10.9979C47.0562 10.6165 46.3017 10.3759 45.5146 10.2953C44.7276 10.2147 43.93 10.2964 43.1855 10.5337C42.441 10.7711 41.7702 11.1576 41.2269 11.6623L29.8442 5.79433L29.8418 5.79642ZM28.4154 7.74893L28.594 7.5989L40.0434 13.5023C39.8568 14.0759 39.8034 14.6764 39.8864 15.2684C39.9694 15.8604 40.1872 16.4318 40.5268 16.9489C40.8596 17.4594 41.3055 17.9066 41.8383 18.2644C42.3711 18.6222 42.9801 18.8834 43.6297 19.0327V30.952C43.5674 30.9669 43.5055 30.9829 43.444 30.9999L28.4154 7.74893ZM40.072 36.6262L28.7035 42.49C28.2298 42.0463 27.6568 41.6926 27.0202 41.451C26.3835 41.2094 25.6969 41.085 25.0029 41.0855C23.5599 41.0855 22.2597 41.6106 21.3357 42.4567L9.94104 36.5803C9.96962 36.4991 9.99581 36.4178 10.0172 36.3345H39.9791C40.0077 36.4324 40.0386 36.5303 40.0744 36.6262H40.072Z" fill="rgba(251, 250, 248, 1)"/>
</svg>
