<svg width="35" height="35" viewBox="0 0 35 35" fill="none" xmlns="http://www.w3.org/2000/svg">
<path d="M17.5 2.91663C15.1794 2.91663 12.9538 3.8385 11.3128 5.47944C9.67187 7.12039 8.75 9.34598 8.75 11.6666C8.75 13.736 9.19042 15.0908 10.3906 16.5885L17.5 24.7916L24.6094 16.5885C25.8096 15.0908 26.25 13.736 26.25 11.6666C26.25 9.34598 25.3281 7.12039 23.6872 5.47944C22.0462 3.8385 19.8206 2.91663 17.5 2.91663Z" fill="black" stroke="black" stroke-width="3" stroke-linecap="round" stroke-linejoin="round"/>
<path d="M7.29163 22.0835C4.59225 23.1437 2.91663 24.6181 2.91663 26.25C2.91663 29.4729 9.44558 32.0833 17.5 32.0833C25.5543 32.0833 32.0833 29.4729 32.0833 26.25C32.0833 24.6181 30.4077 23.1437 27.7083 22.0835" stroke="black" stroke-width="3" stroke-linecap="round" stroke-linejoin="round"/>
<path d="M17.4419 12.6222C18.2151 12.6222 18.8419 12.0818 18.8419 11.4153C18.8419 10.7487 18.2151 10.2084 17.4419 10.2084C16.6687 10.2084 16.0419 10.7487 16.0419 11.4153C16.0419 12.0818 16.6687 12.6222 17.4419 12.6222Z" fill="white" stroke="white" stroke-width="5" stroke-linecap="round" stroke-linejoin="round"/>
</svg>
