<svg width="35" height="35" viewBox="0 0 35 35" fill="none" xmlns="http://www.w3.org/2000/svg">
<path d="M15.8313 9.36113L10.7568 3.50398C10.1718 2.82902 9.09932 2.83202 8.41982 3.51298L4.24684 7.69323C3.00485 8.93665 2.64935 10.783 3.36785 12.2635C7.66025 21.1504 14.8279 28.3276 23.7092 32.6322C25.1882 33.3507 27.0332 32.9952 28.2752 31.7518L32.4872 27.5325C33.1697 26.8501 33.1712 25.7716 32.4902 25.1867L26.6102 20.1395C25.9952 19.6115 25.0397 19.6805 24.4232 20.2985L22.3772 22.3473C22.2725 22.4571 22.1346 22.5295 21.9848 22.5533C21.8349 22.5772 21.6814 22.5512 21.5477 22.4793C18.2034 20.5536 15.4293 17.776 13.5078 14.4293C13.4358 14.2955 13.4098 14.1417 13.4336 13.9916C13.4575 13.8415 13.5299 13.7034 13.6398 13.5984L15.6798 11.557C16.2978 10.936 16.3653 9.97609 15.8313 9.35963V9.36113Z" fill="black" stroke="black" stroke-linecap="round" stroke-linejoin="round"/>
</svg>
